{
    "asset" : {
        "generator" : "Khronos glTF Blender I/O v3.4.50",
        "version" : "2.0"
    },
    "extensionsUsed" : [
        "KHR_materials_specular",
        "KHR_materials_ior"
    ],
    "scene" : 0,
    "scenes" : [
        {
            "name" : "Scene",
            "nodes" : [
                10
            ]
        }
    ],
    "nodes" : [
        {
            "mesh" : 0,
            "name" : "bolts"
        },
        {
            "mesh" : 1,
            "name" : "glass"
        },
        {
            "mesh" : 2,
            "name" : "leg"
        },
        {
            "mesh" : 3,
            "name" : "logo"
        },
        {
            "mesh" : 4,
            "name" : "main body"
        },
        {
            "mesh" : 5,
            "name" : "metal"
        },
        {
            "mesh" : 6,
            "name" : "object"
        },
        {
            "mesh" : 7,
            "name" : "rubbers",
            "rotation" : [
                0.5,
                -0.5,
                0.5000000596046448,
                0.49999991059303284
            ]
        },
        {
            "mesh" : 8,
            "name" : "screen"
        },
        {
            "mesh" : 9,
            "name" : "upper metal"
        },
        {
            "children" : [
                0,
                1,
                2,
                3,
                4,
                5,
                6,
                7,
                8,
                9
            ],
            "name" : "086",
            "scale" : [
                0.0010000000474974513,
                0.0010000000474974513,
                0.0010000000474974513
            ]
        }
    ],
    "materials" : [
        {
            "doubleSided" : true,
            "extensions" : {
                "KHR_materials_specular" : {
                    "specularColorFactor" : [
                        2.371357614441398,
                        2.371357614441398,
                        2.371357614441398
                    ]
                },
                "KHR_materials_ior" : {
                    "ior" : 1.4500000476837158
                }
            },
            "name" : "02 - Default",
            "pbrMetallicRoughness" : {
                "baseColorFactor" : [
                    0.019607843831181526,
                    0.019607843831181526,
                    0.019607843831181526,
                    1
                ],
                "roughnessFactor" : 0
            }
        },
        {
            "doubleSided" : true,
            "extensions" : {
                "KHR_materials_specular" : {
                    "specularColorFactor" : [
                        2.371357614441398,
                        2.371357614441398,
                        2.371357614441398
                    ]
                },
                "KHR_materials_ior" : {
                    "ior" : 1.4500000476837158
                }
            },
            "name" : "03 - Default",
            "pbrMetallicRoughness" : {
                "baseColorFactor" : [
                    0.027450982481241226,
                    0.027450982481241226,
                    0.027450982481241226,
                    1
                ],
                "roughnessFactor" : 0
            }
        },
        {
            "doubleSided" : true,
            "extensions" : {
                "KHR_materials_specular" : {
                    "specularColorFactor" : [
                        2.371357614441398,
                        2.371357614441398,
                        2.371357614441398
                    ]
                },
                "KHR_materials_ior" : {
                    "ior" : 1.4500000476837158
                }
            },
            "name" : "04 - Default",
            "pbrMetallicRoughness" : {
                "baseColorFactor" : [
                    0.5882353186607361,
                    0.5882353186607361,
                    0.5882353186607361,
                    1
                ],
                "roughnessFactor" : 0
            }
        },
        {
            "doubleSided" : true,
            "extensions" : {
                "KHR_materials_specular" : {
                    "specularColorFactor" : [
                        2.3239303660386987,
                        2.3239303660386987,
                        2.3239303660386987
                    ]
                },
                "KHR_materials_ior" : {
                    "ior" : 1.4500000476837158
                }
            },
            "name" : "05 - Default",
            "pbrMetallicRoughness" : {
                "baseColorFactor" : [
                    0.09803922474384308,
                    0.09803922474384308,
                    0.09803922474384308,
                    1
                ],
                "roughnessFactor" : 0.8068127632141113
            }
        },
        {
            "doubleSided" : true,
            "extensions" : {
                "KHR_materials_specular" : {
                    "specularColorFactor" : [
                        2.3239303660386987,
                        2.3239303660386987,
                        2.3239303660386987
                    ]
                },
                "KHR_materials_ior" : {
                    "ior" : 1.4500000476837158
                }
            },
            "name" : "01 - Default2",
            "pbrMetallicRoughness" : {
                "baseColorFactor" : [
                    0.06666667014360428,
                    0.06666667014360428,
                    0.06666667014360428,
                    1
                ],
                "roughnessFactor" : 0.858578622341156
            }
        }
    ],
    "meshes" : [
        {
            "name" : "Mesh.002",
            "primitives" : [
                {
                    "attributes" : {
                        "POSITION" : 0,
                        "TEXCOORD_0" : 1,
                        "NORMAL" : 2
                    },
                    "indices" : 3,
                    "material" : 0
                }
            ]
        },
        {
            "name" : "Mesh.006",
            "primitives" : [
                {
                    "attributes" : {
                        "POSITION" : 4,
                        "TEXCOORD_0" : 5,
                        "NORMAL" : 6
                    },
                    "indices" : 7,
                    "material" : 1
                }
            ]
        },
        {
            "name" : "Mesh.009",
            "primitives" : [
                {
                    "attributes" : {
                        "POSITION" : 8,
                        "NORMAL" : 9
                    },
                    "indices" : 10,
                    "material" : 2
                }
            ]
        },
        {
            "name" : "Mesh.003",
            "primitives" : [
                {
                    "attributes" : {
                        "POSITION" : 11,
                        "NORMAL" : 12
                    },
                    "indices" : 13,
                    "material" : 2
                }
            ]
        },
        {
            "name" : "Mesh.001",
            "primitives" : [
                {
                    "attributes" : {
                        "POSITION" : 14,
                        "TEXCOORD_0" : 15,
                        "NORMAL" : 16
                    },
                    "indices" : 17,
                    "material" : 0
                }
            ]
        },
        {
            "name" : "Mesh.005",
            "primitives" : [
                {
                    "attributes" : {
                        "POSITION" : 18,
                        "TEXCOORD_0" : 19,
                        "NORMAL" : 20
                    },
                    "indices" : 21,
                    "material" : 1
                }
            ]
        },
        {
            "name" : "Mesh.004",
            "primitives" : [
                {
                    "attributes" : {
                        "POSITION" : 22,
                        "TEXCOORD_0" : 23,
                        "NORMAL" : 24
                    },
                    "indices" : 25,
                    "material" : 1
                }
            ]
        },
        {
            "name" : "Mesh.008",
            "primitives" : [
                {
                    "attributes" : {
                        "POSITION" : 26,
                        "TEXCOORD_0" : 27,
                        "NORMAL" : 28
                    },
                    "indices" : 29,
                    "material" : 3
                }
            ]
        },
        {
            "name" : "Mesh",
            "primitives" : [
                {
                    "attributes" : {
                        "POSITION" : 30,
                        "TEXCOORD_0" : 31,
                        "NORMAL" : 32
                    },
                    "indices" : 33,
                    "material" : 4
                }
            ]
        },
        {
            "name" : "Mesh.007",
            "primitives" : [
                {
                    "attributes" : {
                        "POSITION" : 34,
                        "TEXCOORD_0" : 35,
                        "NORMAL" : 36
                    },
                    "indices" : 37,
                    "material" : 2
                }
            ]
        }
    ],
    "accessors" : [
        {
            "bufferView" : 0,
            "componentType" : 5126,
            "count" : 4037,
            "max" : [
                550.5234375,
                673.1762084960938,
                12.972184181213379
            ],
            "min" : [
                -539.1199340820312,
                319.04962158203125,
                2.645718574523926
            ],
            "type" : "VEC3"
        },
        {
            "bufferView" : 1,
            "componentType" : 5126,
            "count" : 4037,
            "type" : "VEC2"
        },
        {
            "bufferView" : 2,
            "componentType" : 5126,
            "count" : 4037,
            "type" : "VEC3"
        },
        {
            "bufferView" : 3,
            "componentType" : 5123,
            "count" : 11088,
            "type" : "SCALAR"
        },
        {
            "bufferView" : 4,
            "componentType" : 5126,
            "count" : 414,
            "max" : [
                112.64069366455078,
                36.462127685546875,
                17.0130615234375
            ],
            "min" : [
                -101.3567123413086,
                33.11693572998047,
                9.601062774658203
            ],
            "type" : "VEC3"
        },
        {
            "bufferView" : 5,
            "componentType" : 5126,
            "count" : 414,
            "type" : "VEC2"
        },
        {
            "bufferView" : 6,
            "componentType" : 5126,
            "count" : 414,
            "type" : "VEC3"
        },
        {
            "bufferView" : 7,
            "componentType" : 5123,
            "count" : 2148,
            "type" : "SCALAR"
        },
        {
            "bufferView" : 8,
            "componentType" : 5126,
            "count" : 1476,
            "max" : [
                270.6802978515625,
                41.32757568359375,
                86.00332641601562
            ],
            "min" : [
                -259.74688720703125,
                0.7150697708129883,
                -83.96185302734375
            ],
            "type" : "VEC3"
        },
        {
            "bufferView" : 9,
            "componentType" : 5126,
            "count" : 1476,
            "type" : "VEC3"
        },
        {
            "bufferView" : 10,
            "componentType" : 5123,
            "count" : 8556,
            "type" : "SCALAR"
        },
        {
            "bufferView" : 11,
            "componentType" : 5126,
            "count" : 1741,
            "max" : [
                29.201871871948242,
                51.7907600402832,
                23.826187133789062
            ],
            "min" : [
                -17.771879196166992,
                43.3078498840332,
                23.485591888427734
            ],
            "type" : "VEC3"
        },
        {
            "bufferView" : 12,
            "componentType" : 5126,
            "count" : 1741,
            "type" : "VEC3"
        },
        {
            "bufferView" : 13,
            "componentType" : 5123,
            "count" : 9015,
            "type" : "SCALAR"
        },
        {
            "bufferView" : 14,
            "componentType" : 5126,
            "count" : 7708,
            "max" : [
                556.9804077148438,
                674.6341552734375,
                23.73682975769043
            ],
            "min" : [
                -545.5388793945312,
                30.42852783203125,
                -33.9312629699707
            ],
            "type" : "VEC3"
        },
        {
            "bufferView" : 15,
            "componentType" : 5126,
            "count" : 7708,
            "type" : "VEC2"
        },
        {
            "bufferView" : 16,
            "componentType" : 5126,
            "count" : 7708,
            "type" : "VEC3"
        },
        {
            "bufferView" : 17,
            "componentType" : 5123,
            "count" : 28440,
            "type" : "SCALAR"
        },
        {
            "bufferView" : 18,
            "componentType" : 5126,
            "count" : 128,
            "max" : [
                112.44699096679688,
                38.568328857421875,
                16.616418838500977
            ],
            "min" : [
                -101.16739654541016,
                36.34796905517578,
                10.05885124206543
            ],
            "type" : "VEC3"
        },
        {
            "bufferView" : 19,
            "componentType" : 5126,
            "count" : 128,
            "type" : "VEC2"
        },
        {
            "bufferView" : 20,
            "componentType" : 5126,
            "count" : 128,
            "type" : "VEC3"
        },
        {
            "bufferView" : 21,
            "componentType" : 5123,
            "count" : 612,
            "type" : "SCALAR"
        },
        {
            "bufferView" : 22,
            "componentType" : 5126,
            "count" : 803,
            "max" : [
                114.2000732421875,
                38.7834358215332,
                17.916399002075195
            ],
            "min" : [
                -103.00152587890625,
                30.454509735107422,
                9.689730644226074
            ],
            "type" : "VEC3"
        },
        {
            "bufferView" : 23,
            "componentType" : 5126,
            "count" : 803,
            "type" : "VEC2"
        },
        {
            "bufferView" : 24,
            "componentType" : 5126,
            "count" : 803,
            "type" : "VEC3"
        },
        {
            "bufferView" : 25,
            "componentType" : 5123,
            "count" : 4632,
            "type" : "SCALAR"
        },
        {
            "bufferView" : 26,
            "componentType" : 5126,
            "count" : 1628,
            "max" : [
                82.13717651367188,
                258.9124450683594,
                0.04583740234375
            ],
            "min" : [
                -85.25236511230469,
                -270.3113098144531,
                -8.711854934692383
            ],
            "type" : "VEC3"
        },
        {
            "bufferView" : 27,
            "componentType" : 5126,
            "count" : 1628,
            "type" : "VEC2"
        },
        {
            "bufferView" : 28,
            "componentType" : 5126,
            "count" : 1628,
            "type" : "VEC3"
        },
        {
            "bufferView" : 29,
            "componentType" : 5123,
            "count" : 8196,
            "type" : "SCALAR"
        },
        {
            "bufferView" : 30,
            "componentType" : 5126,
            "count" : 45,
            "max" : [
                546.4798583984375,
                669.1556396484375,
                23.16474151611328
            ],
            "min" : [
                -535.0384521484375,
                57.090423583984375,
                23.163860321044922
            ],
            "type" : "VEC3"
        },
        {
            "bufferView" : 31,
            "componentType" : 5126,
            "count" : 45,
            "type" : "VEC2"
        },
        {
            "bufferView" : 32,
            "componentType" : 5126,
            "count" : 45,
            "type" : "VEC3"
        },
        {
            "bufferView" : 33,
            "componentType" : 5123,
            "count" : 204,
            "type" : "SCALAR"
        },
        {
            "bufferView" : 34,
            "componentType" : 5126,
            "count" : 488,
            "max" : [
                556.98046875,
                674.6341552734375,
                23.737102508544922
            ],
            "min" : [
                -545.5388793945312,
                38.956451416015625,
                12.161537170410156
            ],
            "type" : "VEC3"
        },
        {
            "bufferView" : 35,
            "componentType" : 5126,
            "count" : 488,
            "type" : "VEC2"
        },
        {
            "bufferView" : 36,
            "componentType" : 5126,
            "count" : 488,
            "type" : "VEC3"
        },
        {
            "bufferView" : 37,
            "componentType" : 5123,
            "count" : 2436,
            "type" : "SCALAR"
        }
    ],
    "bufferViews" : [
        {
            "buffer" : 0,
            "byteLength" : 48444,
            "byteOffset" : 0,
            "target" : 34962
        },
        {
            "buffer" : 0,
            "byteLength" : 32296,
            "byteOffset" : 48444,
            "target" : 34962
        },
        {
            "buffer" : 0,
            "byteLength" : 48444,
            "byteOffset" : 80740,
            "target" : 34962
        },
        {
            "buffer" : 0,
            "byteLength" : 22176,
            "byteOffset" : 129184,
            "target" : 34963
        },
        {
            "buffer" : 0,
            "byteLength" : 4968,
            "byteOffset" : 151360,
            "target" : 34962
        },
        {
            "buffer" : 0,
            "byteLength" : 3312,
            "byteOffset" : 156328,
            "target" : 34962
        },
        {
            "buffer" : 0,
            "byteLength" : 4968,
            "byteOffset" : 159640,
            "target" : 34962
        },
        {
            "buffer" : 0,
            "byteLength" : 4296,
            "byteOffset" : 164608,
            "target" : 34963
        },
        {
            "buffer" : 0,
            "byteLength" : 17712,
            "byteOffset" : 168904,
            "target" : 34962
        },
        {
            "buffer" : 0,
            "byteLength" : 17712,
            "byteOffset" : 186616,
            "target" : 34962
        },
        {
            "buffer" : 0,
            "byteLength" : 17112,
            "byteOffset" : 204328,
            "target" : 34963
        },
        {
            "buffer" : 0,
            "byteLength" : 20892,
            "byteOffset" : 221440,
            "target" : 34962
        },
        {
            "buffer" : 0,
            "byteLength" : 20892,
            "byteOffset" : 242332,
            "target" : 34962
        },
        {
            "buffer" : 0,
            "byteLength" : 18030,
            "byteOffset" : 263224,
            "target" : 34963
        },
        {
            "buffer" : 0,
            "byteLength" : 92496,
            "byteOffset" : 281256,
            "target" : 34962
        },
        {
            "buffer" : 0,
            "byteLength" : 61664,
            "byteOffset" : 373752,
            "target" : 34962
        },
        {
            "buffer" : 0,
            "byteLength" : 92496,
            "byteOffset" : 435416,
            "target" : 34962
        },
        {
            "buffer" : 0,
            "byteLength" : 56880,
            "byteOffset" : 527912,
            "target" : 34963
        },
        {
            "buffer" : 0,
            "byteLength" : 1536,
            "byteOffset" : 584792,
            "target" : 34962
        },
        {
            "buffer" : 0,
            "byteLength" : 1024,
            "byteOffset" : 586328,
            "target" : 34962
        },
        {
            "buffer" : 0,
            "byteLength" : 1536,
            "byteOffset" : 587352,
            "target" : 34962
        },
        {
            "buffer" : 0,
            "byteLength" : 1224,
            "byteOffset" : 588888,
            "target" : 34963
        },
        {
            "buffer" : 0,
            "byteLength" : 9636,
            "byteOffset" : 590112,
            "target" : 34962
        },
        {
            "buffer" : 0,
            "byteLength" : 6424,
            "byteOffset" : 599748,
            "target" : 34962
        },
        {
            "buffer" : 0,
            "byteLength" : 9636,
            "byteOffset" : 606172,
            "target" : 34962
        },
        {
            "buffer" : 0,
            "byteLength" : 9264,
            "byteOffset" : 615808,
            "target" : 34963
        },
        {
            "buffer" : 0,
            "byteLength" : 19536,
            "byteOffset" : 625072,
            "target" : 34962
        },
        {
            "buffer" : 0,
            "byteLength" : 13024,
            "byteOffset" : 644608,
            "target" : 34962
        },
        {
            "buffer" : 0,
            "byteLength" : 19536,
            "byteOffset" : 657632,
            "target" : 34962
        },
        {
            "buffer" : 0,
            "byteLength" : 16392,
            "byteOffset" : 677168,
            "target" : 34963
        },
        {
            "buffer" : 0,
            "byteLength" : 540,
            "byteOffset" : 693560,
            "target" : 34962
        },
        {
            "buffer" : 0,
            "byteLength" : 360,
            "byteOffset" : 694100,
            "target" : 34962
        },
        {
            "buffer" : 0,
            "byteLength" : 540,
            "byteOffset" : 694460,
            "target" : 34962
        },
        {
            "buffer" : 0,
            "byteLength" : 408,
            "byteOffset" : 695000,
            "target" : 34963
        },
        {
            "buffer" : 0,
            "byteLength" : 5856,
            "byteOffset" : 695408,
            "target" : 34962
        },
        {
            "buffer" : 0,
            "byteLength" : 3904,
            "byteOffset" : 701264,
            "target" : 34962
        },
        {
            "buffer" : 0,
            "byteLength" : 5856,
            "byteOffset" : 705168,
            "target" : 34962
        },
        {
            "buffer" : 0,
            "byteLength" : 4872,
            "byteOffset" : 711024,
            "target" : 34963
        }
    ],
    "buffers" : [
        {
            "byteLength" : 715896,
            "uri" : "data:application/octet-stream;base64,"
        }
    ]
}
