<svg width="117" height="43" viewBox="0 0 117 43" fill="none" xmlns="http://www.w3.org/2000/svg">
<path d="M0.0625 2.55469C1.26562 2.70052 2.35938 2.8099 3.34375 2.88281C4.29167 2.95573 5.11198 3.02865 5.80469 3.10156C6.60677 3.17448 7.31771 3.22917 7.9375 3.26562C8.59375 3.26562 9.43229 3.2474 10.4531 3.21094C11.3281 3.17448 12.4401 3.11979 13.7891 3.04688C15.138 2.97396 16.7969 2.84635 18.7656 2.66406C17.8177 3.21094 17.0339 3.75781 16.4141 4.30469C15.8307 4.85156 15.375 5.34375 15.0469 5.78125C14.6458 6.29167 14.3542 6.80208 14.1719 7.3125C14.0625 8.00521 14.099 9.35417 14.2812 11.3594C14.3542 12.1979 14.4635 13.237 14.6094 14.4766C14.7917 15.6797 15.0104 17.1198 15.2656 18.7969C15.5573 20.4375 15.9036 22.3333 16.3047 24.4844C16.7422 26.6354 17.2344 29.0781 17.7812 31.8125C18.5104 29.7344 19.112 27.8932 19.5859 26.2891C20.0599 24.6484 20.4609 23.2448 20.7891 22.0781C21.1536 20.7656 21.4635 19.599 21.7188 18.5781C21.974 17.5208 22.2839 16.1536 22.6484 14.4766C22.9401 13.0547 23.3229 11.2135 23.7969 8.95312C24.2708 6.69271 24.8542 3.90365 25.5469 0.585938L27.5156 0.859375C27.6979 3.44792 27.8802 5.72656 28.0625 7.69531C28.2812 9.66406 28.4635 11.3411 28.6094 12.7266C28.7552 14.3307 28.901 15.7161 29.0469 16.8828C29.1927 17.9401 29.4115 19.1615 29.7031 20.5469C29.9583 21.7135 30.2865 23.1536 30.6875 24.8672C31.0885 26.5443 31.6172 28.4401 32.2734 30.5547C32.9297 27.9661 33.513 25.651 34.0234 23.6094C34.5703 21.5677 35.026 19.763 35.3906 18.1953C35.7917 16.6276 36.1198 15.2786 36.375 14.1484C36.6667 13.0182 36.9036 12.0703 37.0859 11.3047C37.487 9.48177 37.724 8.26042 37.7969 7.64062C37.7604 6.94792 37.5964 6.27344 37.3047 5.61719C37.0495 5.03385 36.6484 4.39583 36.1016 3.70312C35.5547 3.01042 34.7526 2.33594 33.6953 1.67969C35.9193 1.7526 37.724 1.80729 39.1094 1.84375C40.5312 1.84375 41.6615 1.84375 42.5 1.84375H44.6875H46.6562C47.3854 1.84375 48.3333 1.84375 49.5 1.84375C50.7031 1.80729 52.2344 1.7526 54.0938 1.67969C52.4896 2.51823 51.1953 3.28385 50.2109 3.97656C49.2266 4.66927 48.4609 5.2526 47.9141 5.72656C47.2578 6.3099 46.7839 6.80208 46.4922 7.20312C46.2005 7.93229 45.7266 9.57292 45.0703 12.125C44.7786 13.2188 44.4505 14.5859 44.0859 16.2266C43.7214 17.8307 43.2839 19.763 42.7734 22.0234C42.2995 24.2839 41.7526 26.9271 41.1328 29.9531C40.513 32.9427 39.8203 36.3698 39.0547 40.2344L29.5938 39.25L25.5469 22.2422C24.9271 25.3411 24.4349 27.8568 24.0703 29.7891C23.7057 31.6849 23.4323 33.1615 23.25 34.2188C23.0312 35.4948 22.9036 36.4245 22.8672 37.0078C22.8307 37.5182 22.7943 38.0104 22.7578 38.4844C22.7214 38.8854 22.6667 39.3229 22.5938 39.7969C22.5573 40.2708 22.5026 40.7083 22.4297 41.1094H12.75C11.8021 36.9531 10.9453 33.2891 10.1797 30.1172C9.45052 26.9089 8.79427 24.1016 8.21094 21.6953C7.6276 19.2891 7.11719 17.2474 6.67969 15.5703C6.27865 13.8932 5.91406 12.4896 5.58594 11.3594C4.85677 8.73438 4.32812 7.11198 4 6.49219C3.74479 6.20052 3.41667 5.85417 3.01562 5.45312C2.6875 5.125 2.28646 4.72396 1.8125 4.25C1.30208 3.73958 0.71875 3.17448 0.0625 2.55469ZM48.4609 15.8438C49.4089 16.026 50.2292 16.1719 50.9219 16.2812C51.651 16.3542 52.2708 16.4271 52.7812 16.5C53.3646 16.5729 53.875 16.6276 54.3125 16.6641C54.75 16.7005 55.2604 16.737 55.8438 16.7734C56.8281 16.8099 58.2135 16.8099 60 16.7734C58.9427 16.7005 58.1042 16.974 57.4844 17.5938C56.901 18.1771 56.4635 18.8516 56.1719 19.6172C55.8073 20.5286 55.6068 21.5859 55.5703 22.7891C55.4974 24.3932 55.5339 25.8516 55.6797 27.1641C55.862 28.4401 56.1719 29.5339 56.6094 30.4453C57.0833 31.3203 57.7031 31.9766 58.4688 32.4141C59.2344 32.8151 60.2188 32.9245 61.4219 32.7422C62.625 32.5599 63.5365 32.1406 64.1562 31.4844C64.8125 30.7917 65.2865 29.9531 65.5781 28.9688C65.8698 27.9479 66.0339 26.7995 66.0703 25.5234C66.1432 24.2474 66.1979 22.9167 66.2344 21.5312C66.2344 20.1458 66.2161 19.1615 66.1797 18.5781C66.1797 17.9583 66.1615 17.5573 66.125 17.375C66.0885 17.1927 66.0339 17.1198 65.9609 17.1562C65.888 17.1562 65.7969 17.0651 65.6875 16.8828C65.6146 16.737 65.5052 16.5911 65.3594 16.4453C65.25 16.2995 65.1042 16.1354 64.9219 15.9531C64.7396 15.7344 64.5391 15.5156 64.3203 15.2969C65.2682 15.3333 66.1068 15.3698 66.8359 15.4062C67.6016 15.4062 68.2396 15.4245 68.75 15.4609C69.3333 15.4974 69.8438 15.5339 70.2812 15.5703C70.6823 15.6068 71.2109 15.6615 71.8672 15.7344C72.4141 15.8073 73.125 15.8802 74 15.9531C74.875 16.026 75.9141 16.1354 77.1172 16.2812C76.2786 16.4635 75.6042 16.737 75.0938 17.1016C74.5833 17.4661 74.1823 17.8307 73.8906 18.1953C73.5625 18.5964 73.3255 19.0339 73.1797 19.5078C73.0703 20.1276 73.0703 21.0755 73.1797 22.3516C73.2526 23.4818 73.4349 25.0312 73.7266 27C74.0182 28.9688 74.474 31.5573 75.0938 34.7656L70.7734 37.3359L69.8984 30.0625C68.8411 31.849 67.7109 33.2344 66.5078 34.2188C65.3411 35.1667 64.2474 35.8594 63.2266 36.2969C62.0234 36.8073 60.8568 37.099 59.7266 37.1719C58.2318 37.1719 56.9375 37.0807 55.8438 36.8984C54.7865 36.6797 53.875 36.4062 53.1094 36.0781C52.3438 35.75 51.724 35.3854 51.25 34.9844C50.8125 34.5469 50.4844 34.1094 50.2656 33.6719C49.7552 32.7604 49.4818 31.5938 49.4453 30.1719C49.4089 28.7135 49.4635 27.2734 49.6094 25.8516C49.7552 24.3932 49.9193 23.0625 50.1016 21.8594C50.2839 20.6562 50.3385 19.8359 50.2656 19.3984C50.1927 19.0703 50.0833 18.7057 49.9375 18.3047C49.7917 17.9766 49.6094 17.612 49.3906 17.2109C49.1719 16.7734 48.862 16.3177 48.4609 15.8438ZM77.3906 14.8047C78.0833 14.8411 78.7031 14.8594 79.25 14.8594C79.8333 14.8229 80.3255 14.7865 80.7266 14.75C81.2005 14.7135 81.6198 14.6771 81.9844 14.6406C82.5312 14.5677 83.0964 14.4766 83.6797 14.3672C84.1901 14.2943 84.7188 14.2031 85.2656 14.0938C85.849 13.9479 86.4141 13.7839 86.9609 13.6016C86.7422 14.1484 86.5599 14.6224 86.4141 15.0234C86.2682 15.4245 86.1589 15.7708 86.0859 16.0625C85.9766 16.3906 85.9219 16.6641 85.9219 16.8828C85.8854 17.138 85.8672 17.4479 85.8672 17.8125C85.8307 18.4323 85.8307 19.4349 85.8672 20.8203C87.763 19.1797 89.349 17.9036 90.625 16.9922C91.9375 16.0807 92.9766 15.3698 93.7422 14.8594C94.6536 14.276 95.3646 13.8932 95.875 13.7109C97.224 13.4922 98.4089 13.8021 99.4297 14.6406C99.8672 15.0052 100.286 15.4974 100.688 16.1172C101.089 16.7005 101.435 17.4844 101.727 18.4688C102.018 19.4531 102.237 20.638 102.383 22.0234C102.529 23.3724 102.547 24.9948 102.438 26.8906C101.672 26.9635 100.979 27.0365 100.359 27.1094C99.776 27.1823 99.2839 27.237 98.8828 27.2734C98.4089 27.3464 97.9714 27.3828 97.5703 27.3828L96.0938 27.5469C95.5833 27.6198 94.9453 27.6927 94.1797 27.7656C93.4505 27.8021 92.5573 27.875 91.5 27.9844C93.0312 26.7448 94.0156 25.6693 94.4531 24.7578C94.9271 23.8099 95.1276 23.026 95.0547 22.4062C94.9818 21.7135 94.6536 21.112 94.0703 20.6016C93.3776 20.2005 92.6302 20.0547 91.8281 20.1641C91.1354 20.237 90.3333 20.5469 89.4219 21.0938C88.5104 21.6406 87.5443 22.6615 86.5234 24.1562C86.5964 26.4896 86.6693 28.4219 86.7422 29.9531C86.8516 31.4844 86.9427 32.724 87.0156 33.6719C87.125 34.7656 87.2161 35.6224 87.2891 36.2422C87.3984 36.7891 87.6172 37.3724 87.9453 37.9922C88.2005 38.5026 88.5651 39.0677 89.0391 39.6875C89.513 40.3073 90.1328 40.9271 90.8984 41.5469C89.2943 41.474 87.9818 41.474 86.9609 41.5469C86.3411 41.5833 85.7943 41.6198 85.3203 41.6562C84.8099 41.7292 84.263 41.8021 83.6797 41.875C83.1693 41.9479 82.5677 42.0208 81.875 42.0938C81.2188 42.2031 80.4896 42.3125 79.6875 42.4219C79.9792 42.0208 80.2161 41.5469 80.3984 41C80.5807 40.4896 80.7266 39.9974 80.8359 39.5234C80.9818 38.9766 81.0911 38.4115 81.1641 37.8281C81.2005 37.3177 81.2188 36.5521 81.2188 35.5312C81.2552 34.5104 81.237 33.362 81.1641 32.0859C81.1276 30.7734 81.0729 29.4245 81 28.0391C80.9271 26.6172 80.8359 25.2865 80.7266 24.0469C80.6172 22.8073 80.4896 21.7318 80.3438 20.8203C80.2344 19.8724 80.1068 19.2161 79.9609 18.8516C79.7786 18.4141 79.5599 17.9766 79.3047 17.5391C79.0859 17.138 78.8125 16.7188 78.4844 16.2812C78.1562 15.8073 77.7917 15.3151 77.3906 14.8047ZM104.734 16.5547L114.797 16.6641C114.214 18.888 113.776 20.7839 113.484 22.3516C113.229 23.9193 113.065 25.2318 112.992 26.2891C112.846 27.4922 112.81 28.513 112.883 29.3516C112.992 30.1172 113.174 30.9375 113.43 31.8125C113.648 32.5417 113.977 33.3802 114.414 34.3281C114.852 35.276 115.435 36.224 116.164 37.1719C115.727 37.026 115.253 36.9167 114.742 36.8438C114.232 36.7708 113.758 36.7161 113.32 36.6797C112.81 36.6432 112.299 36.6432 111.789 36.6797C111.279 36.7161 110.714 36.7708 110.094 36.8438C109.583 36.9167 108.964 37.0078 108.234 37.1172C107.505 37.2266 106.74 37.3724 105.938 37.5547C106.484 35.9141 106.904 34.4922 107.195 33.2891C107.523 32.0859 107.76 31.0833 107.906 30.2812C108.052 29.3333 108.143 28.5677 108.18 27.9844C108.18 27.2552 108.18 26.4349 108.18 25.5234C108.18 24.5755 108.18 23.6641 108.18 22.7891C108.18 21.9141 108.161 21.1484 108.125 20.4922C108.089 19.7995 108.016 19.362 107.906 19.1797L107.359 18.6328C107.141 18.4505 106.812 18.1953 106.375 17.8672C105.974 17.5026 105.427 17.0651 104.734 16.5547ZM108.617 8.13281C109.383 7.73177 110.148 7.6224 110.914 7.80469C111.716 7.98698 112.336 8.33333 112.773 8.84375C113.211 9.35417 113.357 9.95573 113.211 10.6484C113.102 11.3411 112.518 12.0156 111.461 12.6719C110.404 13.2917 109.474 13.5104 108.672 13.3281C107.87 13.1458 107.305 12.763 106.977 12.1797C106.648 11.5964 106.594 10.9219 106.812 10.1562C107.031 9.35417 107.633 8.67969 108.617 8.13281Z" fill="white"/>
</svg>
